# xmcd
#
# Track frame offsets:
#	150
#	14879
#	28131
#	43082
#	64512
#	75817
#	91327
#	108392
#	127872
#	143339
#
# Disc length: 2128 seconds
#
# Revision: 3
# Processed by: cddbd v1.5.2PL0 Copyright (c) Steve Scherf et al.
# Submitted via: dBpowerAMP V4.0
#
DISCID=74084e0a
DTITLE=Kellie Pickler - Kellie Pickler
DYEAR=2008
DGENRE=Country
TTITLE0=Don't You Know You're Beautiful
TTITLE1=I'm Your Woman
TTITLE2=Rocks Instead Of Rice
TTITLE3=Didn't You Know How Much I Loved You
TTITLE4=Lucky Girl
TTITLE5=One Last Time
TTITLE6=Best Days Of Your Life
TTITLE7=Somebody To Love Me
TTITLE8=Makin' Me Fall In Love Again
TTITLE9=Going Out In Style
EXTD=
EXTT0=
EXTT1=
EXTT2=
EXTT3=
EXTT4=
EXTT5=
EXTT6=
EXTT7=
EXTT8=
EXTT9=
PLAYORDER=
